# xmcd
#
# Track frame offsets:
#	183
#	13045
#	25285
#	38183
#	52525
#	63638
#	76478
#	89015
#	104175
#	114333
#	125388
#	139858
#	152390
#	163883
#	176178
#	188765
#	199995
#	211505
#	221378
#	231235
#
# Disc length: 3251 seconds
#
# Revision: 1
# Processed by: cddbd v1.4PL0 Copyright (c) Steve Scherf et al.
# Submitted via: audiograbber 1.81.03
#
DISCID=170cb114
DTITLE=Dinah Washington - Her Greatest Hits
DYEAR=1993
DGENRE=R&B
TTITLE0=Am I Asking Too Much
TTITLE1=It's Too Soon To Know
TTITLE2=Baby Get Lost
TTITLE3=Long John Blues
TTITLE4=I Only Know
TTITLE5=I Wanna Be Loved
TTITLE6=I'll Never Be Free
TTITLE7=Cold, Cold Heart
TTITLE8=Wheel of Fortune
TTITLE9=T.V. is the Thing (This Year)
TTITLE10=I Don't Hurt Anymore
TTITLE11=Teach Me Tonight
TTITLE12=What A Difference A Day Makes
TTITLE13=Unforgettable
TTITLE14=Baby You've Got What It Takes
TTITLE15=A Rockin' Good Way (To Mess Around And Fall In Love)
TTITLE16=This Bitter Earth
TTITLE17=Love Walked In
TTITLE18=September in the Rain
TTITLE19=Mad About the Boy
EXTD=
EXTT0=
EXTT1=
EXTT2=
EXTT3=
EXTT4=
EXTT5=
EXTT6=
EXTT7=
EXTT8=
EXTT9=
EXTT10=
EXTT11=
EXTT12=
EXTT13=
EXTT14=
EXTT15=
EXTT16=
EXTT17=
EXTT18=
EXTT19=
PLAYORDER=
